# xmcd
#
# Track frame offsets:
#	150
#	2450
#	20599
#	32000
#	42605
#	56644
#	64144
#	83571
#	84697
#	98004
#	121404
#	131921
#	149622
#	169332
#	181483
#	182458
#	194084
#	212607
#	221533
#	232935
#	253350
#
# Disc length: 3604 seconds
#
# Revision: 0
# Processed by: cddbd v1.5.1PL0 Copyright (c) Steve Scherf et al.
# Submitted via: dBpowerAMP V4.0
#
DISCID=340e1215
DTITLE=Tha Hood - Blastoff Vol1
DYEAR=2005
DGENRE=Hip-Hop
TTITLE0=Intro
TTITLE1=Welcome 2 da Hood
TTITLE2=Still Tipen
TTITLE3=Freestyle
TTITLE4=bLU
TTITLE5=FAST
TTITLE6=NELLZ Quest
TTITLE7=u
TTITLE8=y
TTITLE9=t
TTITLE10=r
TTITLE11=e
TTITLE12=w
TTITLE13=q
TTITLE14=p
TTITLE15=o
TTITLE16=n
TTITLE17=d
TTITLE18=b
TTITLE19=m
TTITLE20=z
EXTD=Mike Wilson Blast Off Vol 1\n
EXTT0=
EXTT1=
EXTT2=
EXTT3=
EXTT4=
EXTT5=
EXTT6=
EXTT7=
EXTT8=
EXTT9=
EXTT10=
EXTT11=
EXTT12=
EXTT13=
EXTT14=
EXTT15=
EXTT16=
EXTT17=
EXTT18=
EXTT19=
EXTT20=
PLAYORDER=
